<?xml version="1.0" encoding="UTF-8" standalone="no"?>
<svg
   width="500"
   zoomAndPan="magnify"
   viewBox="0 0 375 374.999991"
   height="500"
   preserveAspectRatio="xMidYMid meet"
   version="1.0"
   id="svg89"
   sodipodi:docname="Logo.svg"
   inkscape:version="1.2.2 (b0a8486541, 2022-12-01)"
   xmlns:inkscape="http://www.inkscape.org/namespaces/inkscape"
   xmlns:sodipodi="http://sodipodi.sourceforge.net/DTD/sodipodi-0.dtd"
   xmlns="http://www.w3.org/2000/svg"
   xmlns:svg="http://www.w3.org/2000/svg">
  <sodipodi:namedview
     id="namedview91"
     pagecolor="#ffffff"
     bordercolor="#666666"
     borderopacity="1.0"
     inkscape:showpageshadow="2"
     inkscape:pageopacity="0.0"
     inkscape:pagecheckerboard="0"
     inkscape:deskcolor="#d1d1d1"
     showgrid="false"
     inkscape:zoom="0.472"
     inkscape:cx="250"
     inkscape:cy="250"
     inkscape:window-width="1366"
     inkscape:window-height="743"
     inkscape:window-x="1920"
     inkscape:window-y="312"
     inkscape:window-maximized="1"
     inkscape:current-layer="svg89" />
  <defs
     id="defs7">
    <g
       id="g2" />
    <clipPath
       id="fb4773823c">
      <path
         d="M 45.5625 69.910156 L 329.8125 69.910156 L 329.8125 300.910156 L 45.5625 300.910156 Z M 45.5625 69.910156 "
         clip-rule="nonzero"
         id="path4" />
    </clipPath>
  </defs>
  <g
     clip-path="url(#fb4773823c)"
     id="g17">
    <path
       fill="#000000"
       d="M 258.734375 69.910156 C 211.566406 69.910156 187.6875 104.566406 187.6875 104.566406 C 187.6875 104.566406 163.804688 69.910156 116.636719 69.910156 C 74.566406 69.910156 45.585938 106.109375 45.585938 148.089844 C 45.585938 194.476562 81.507812 256.921875 187.6875 300.910156 C 293.867188 256.921875 329.785156 194.476562 329.785156 148.089844 C 329.785156 106.109375 300.804688 69.910156 258.734375 69.910156 Z M 192.652344 139.714844 C 196.335938 121.941406 214.558594 109.492188 224.660156 130.648438 C 233.34375 147.039062 211.730469 187.90625 195.21875 162.085938 C 191.207031 155.777344 190.976562 146.808594 192.652344 139.714844 Z M 150.714844 130.648438 C 160.8125 109.492188 179.035156 121.941406 182.71875 139.714844 C 184.398438 146.777344 184.167969 155.746094 180.152344 162.085938 C 163.640625 187.9375 142.03125 147.074219 150.714844 130.648438 Z M 118.511719 166.222656 C 126.078125 146.382812 143.414062 156.269531 148.050781 172.039062 C 150.054688 178.28125 150.515625 186.425781 147.390625 192.40625 C 134.367188 216.945312 111.867188 181.664062 118.511719 166.222656 Z M 224.757812 250.878906 C 217.09375 252.289062 208.113281 249.695312 201.371094 244.441406 C 201.042969 244.175781 200.679688 243.914062 200.351562 243.683594 C 195.546875 240.433594 191.632812 238.824219 187.6875 238.824219 C 183.738281 238.824219 179.824219 240.433594 175.023438 243.683594 C 174.660156 243.914062 174.332031 244.175781 174.003906 244.441406 C 167.292969 249.695312 158.28125 252.257812 150.617188 250.878906 C 141.042969 249.136719 134.792969 239.808594 136.539062 230.25 C 140.058594 210.867188 159.398438 184.882812 178.046875 177.03125 C 181.140625 175.71875 184.429688 175.09375 187.6875 175.09375 C 190.976562 175.09375 194.265625 175.75 197.324219 177.03125 C 215.976562 184.882812 235.316406 210.867188 238.835938 230.25 C 240.578125 239.808594 234.328125 249.136719 224.757812 250.878906 Z M 228.011719 192.40625 C 224.855469 186.394531 225.316406 178.28125 227.324219 172.039062 C 231.960938 156.269531 249.296875 146.382812 256.859375 166.222656 C 263.503906 181.664062 241.007812 216.945312 228.011719 192.40625 Z M 228.011719 192.40625 "
       fill-opacity="1"
       fill-rule="nonzero"
       id="path15" />
  </g>
  <g
     fill="#292725"
     fill-opacity="1"
     id="g25">
    <g
       transform="translate(61.871079, 313.961873)"
       id="g23">
      <g
         id="g21">
        <path
           d="M 32.023438 15.019531 C 32.121094 13.667969 31.503906 12.585938 30.261719 11.886719 C 29.476562 11.414062 28.515625 11.101562 27.695312 10.828125 C 23.75 9.484375 19.34375 7.460938 16.800781 2.554688 C 14.695312 -1.570312 15.363281 -6.132812 18.554688 -9.046875 C 19.589844 -9.980469 20.980469 -11.160156 22.554688 -11.75 C 29.921875 -14.625 34.808594 -13.320312 38.367188 -7.488281 C 38.871094 -6.714844 39.359375 -6.070312 39.851562 -5.585938 C 40.53125 -4.96875 41.316406 -4.726562 42.0625 -4.964844 C 42.746094 -5.195312 43.246094 -5.792969 43.414062 -6.632812 C 43.601562 -7.570312 43.570312 -8.675781 43.300781 -9.839844 C 42.5625 -12.894531 40.707031 -15.523438 38.222656 -17.375 C 36.0625 -18.980469 33.40625 -19.992188 30.539062 -20.191406 C 24.28125 -20.640625 18.96875 -19.078125 14.625 -15.605469 C 8.914062 -10.988281 6.636719 -5.40625 7.800781 0.972656 C 8.667969 5.765625 11.328125 10.136719 15.667969 13.929688 C 18.949219 16.089844 22.257812 17.527344 25.824219 18.304688 C 26.902344 18.539062 28.316406 18.398438 29.820312 17.980469 C 31.132812 17.59375 31.949219 16.496094 32.023438 15.019531 Z M 32.023438 15.019531 "
           id="path19" />
      </g>
    </g>
  </g>
  <g
     fill="#292725"
     fill-opacity="1"
     id="g33">
    <g
       transform="translate(94.198061, 337.33035)"
       id="g31">
      <g
         id="g29">
        <path
           d="M 40.398438 -16.386719 C 40.464844 -17.714844 39.847656 -18.757812 38.6875 -19.402344 C 37.402344 -20.105469 36.160156 -20.03125 35.101562 -19.167969 C 34.261719 -18.554688 33.527344 -17.738281 32.921875 -16.765625 C 32.273438 -15.808594 31.6875 -14.773438 31.121094 -13.78125 C 30.476562 -12.621094 29.816406 -11.421875 29.027344 -10.277344 L 28.65625 -9.699219 C 26.949219 -7.125 25.160156 -4.488281 23.078125 -2.085938 C 22.089844 -0.9375 20.941406 -0.417969 19.773438 -0.511719 C 18.507812 -0.601562 17.300781 -1.46875 16.34375 -2.972656 C 14.894531 -5.363281 14.664062 -7.988281 15.671875 -10.789062 C 16.152344 -12.027344 16.609375 -13.324219 17.085938 -14.558594 C 17.789062 -16.496094 18.515625 -18.472656 19.179688 -20.425781 C 19.710938 -21.890625 20.027344 -23.101562 20.203125 -24.226562 C 20.410156 -25.640625 19.808594 -26.828125 18.613281 -27.289062 C 17.417969 -27.746094 16.34375 -27.496094 15.371094 -26.386719 C 14.976562 -25.96875 14.636719 -25.574219 14.402344 -25.179688 C 13.292969 -23.234375 12.179688 -21.285156 11.003906 -19.320312 L 10.246094 -17.910156 L 10.371094 -17.855469 L 10.175781 -17.441406 C 10.003906 -17.070312 9.828125 -16.695312 9.65625 -16.324219 C 9.308594 -15.582031 8.941406 -14.796875 8.632812 -14.035156 C 6.347656 -8.609375 6.765625 -3.480469 9.804688 1.214844 C 11.757812 4.144531 14.582031 6.070312 17.816406 6.578125 C 21.054688 7.085938 24.3125 6.144531 27.03125 3.992188 C 28.332031 2.9375 29.625 1.78125 30.53125 0.496094 C 33.382812 -3.660156 36.308594 -8.082031 39.695312 -13.492188 C 40.089844 -14.113281 40.347656 -15.101562 40.398438 -16.386719 Z M 40.398438 -16.386719 "
           id="path27" />
      </g>
    </g>
  </g>
  <g
     fill="#292725"
     fill-opacity="1"
     id="g41">
    <g
       transform="translate(125.708237, 351.740511)"
       id="g39">
      <g
         id="g37">
        <path
           d="M 33.476562 -25.96875 C 33.148438 -26.148438 32.816406 -26.328125 32.429688 -26.476562 C 30.976562 -27.042969 29.5 -27.519531 28 -27.910156 C 24.953125 -28.703125 21.828125 -29.1875 18.78125 -29.605469 C 16.878906 -29.910156 14.925781 -30.183594 12.992188 -30.546875 C 12.949219 -30.554688 12.894531 -30.523438 12.804688 -30.546875 L 12.660156 -30.539062 C 10.667969 -30.488281 9.367188 -29.652344 9.054688 -28.082031 C 8.71875 -26.617188 9.46875 -25.335938 11.207031 -24.414062 C 11.625 -24.210938 12.054688 -24.050781 12.53125 -23.878906 C 13.511719 -23.484375 14.503906 -23.132812 15.496094 -22.777344 L 16.90625 -22.222656 L 16.753906 -21.460938 C 16.695312 -21.242188 16.652344 -21.0625 16.59375 -20.84375 C 16.191406 -19.296875 15.746094 -17.765625 15.296875 -16.234375 C 14.222656 -12.460938 13.167969 -8.589844 12.167969 -4.75 C 11.8125 -3.382812 11.6875 -1.8125 11.859375 -0.304688 C 12.035156 1.199219 13.019531 2.304688 14.605469 2.71875 C 16.152344 3.121094 17.550781 2.636719 18.457031 1.316406 C 19.1875 0.328125 19.71875 -0.804688 19.949219 -1.875 C 20.617188 -4.8125 21.058594 -7.761719 21.421875 -10.257812 C 21.746094 -12.574219 22.023438 -14.90625 22.320312 -17.324219 C 22.421875 -18.429688 22.574219 -19.570312 22.730469 -20.707031 L 22.78125 -21.257812 L 26.839844 -20.203125 C 27.28125 -20.085938 27.722656 -19.972656 28.152344 -19.8125 C 29.078125 -19.574219 30.09375 -19.308594 31.03125 -19.109375 C 32.976562 -18.792969 34.722656 -19.707031 35.355469 -21.425781 C 35.9375 -23.113281 35.226562 -24.898438 33.476562 -25.96875 Z M 33.476562 -25.96875 "
           id="path35" />
      </g>
    </g>
  </g>
  <g
     fill="#292725"
     fill-opacity="1"
     id="g49">
    <g
       transform="translate(157.152271, 359.225943)"
       id="g47">
      <g
         id="g45">
        <path
           d="M 14.171875 -25.441406 C 14.289062 -27.082031 14.199219 -28.519531 13.949219 -29.792969 C 13.660156 -31.484375 12.605469 -32.585938 10.894531 -32.851562 C 9.277344 -33.152344 7.703125 -32.34375 6.949219 -30.785156 C 6.386719 -29.613281 5.941406 -28.292969 5.625 -26.910156 C 5.152344 -24.671875 4.769531 -22.421875 4.390625 -20.171875 C 4.25 -19.453125 4.105469 -18.691406 4.011719 -17.964844 L 4.195312 -17.941406 L 4.128906 -17.445312 C 4.003906 -16.449219 3.875 -15.457031 3.699219 -14.464844 C 3.402344 -12.160156 3.042969 -9.722656 2.878906 -7.355469 C 2.746094 -5.625 3.023438 -3.839844 3.570312 -2.390625 C 4.027344 -1.273438 4.941406 -0.515625 5.980469 -0.378906 C 6.023438 -0.375 6.023438 -0.375 6.023438 -0.375 C 7.15625 -0.226562 8.328125 -0.765625 9.113281 -1.863281 C 9.613281 -2.53125 9.972656 -3.175781 10.097656 -3.804688 L 10.757812 -6.429688 C 12.242188 -12.585938 13.796875 -18.960938 14.171875 -25.441406 Z M 14.171875 -25.441406 "
           id="path43" />
      </g>
    </g>
  </g>
  <g
     fill="#292725"
     fill-opacity="1"
     id="g57">
    <g
       transform="translate(171.349141, 361.337355)"
       id="g55">
      <g
         id="g53">
        <path
           d="M 20.367188 -7.953125 C 19.726562 -7.917969 19.085938 -7.789062 18.445312 -7.617188 C 17.941406 -7.441406 17.394531 -7.3125 16.890625 -7.230469 C 14.789062 -6.941406 12.914062 -6.742188 11.179688 -6.675781 C 10.769531 -6.636719 10.363281 -6.960938 10.183594 -7.144531 C 10.003906 -7.332031 9.644531 -7.65625 9.652344 -8.066406 C 9.578125 -9.34375 9.597656 -10.667969 9.617188 -11.941406 C 9.625 -12.398438 9.632812 -12.855469 9.636719 -13.265625 L 9.644531 -13.765625 L 10.144531 -13.757812 C 11.011719 -13.792969 11.878906 -13.824219 12.746094 -13.859375 C 14.847656 -13.917969 16.851562 -13.980469 18.863281 -14.132812 C 19.820312 -14.210938 20.921875 -14.511719 21.976562 -15 C 22.847656 -15.394531 23.820312 -16.246094 23.75 -17.753906 C 23.632812 -19.03125 22.871094 -19.957031 21.644531 -20.246094 C 20.234375 -20.589844 18.59375 -20.703125 16.90625 -20.589844 C 15.582031 -20.472656 14.210938 -20.222656 12.792969 -19.96875 C 12.152344 -19.839844 11.511719 -19.714844 10.824219 -19.632812 L 10.230469 -19.550781 L 10.265625 -21.785156 C 10.28125 -22.96875 10.300781 -24.109375 10.363281 -25.25 C 10.378906 -26.433594 10.386719 -27.027344 10.804688 -27.433594 C 11.21875 -27.789062 11.8125 -27.78125 12.953125 -27.71875 L 14.136719 -27.609375 C 16.003906 -27.492188 17.917969 -27.371094 19.789062 -27.433594 C 22.753906 -27.574219 24.742188 -29.230469 24.683594 -31.511719 C 24.699219 -32.515625 24.257812 -33.480469 23.492188 -34.175781 C 22.636719 -34.964844 21.457031 -35.4375 20.089844 -35.457031 C 19.953125 -35.460938 19.816406 -35.460938 19.726562 -35.464844 C 16.851562 -35.324219 13.925781 -34.957031 11.140625 -34.585938 L 9.128906 -34.34375 C 8.441406 -34.261719 7.664062 -33.910156 7.066406 -33.597656 C 5.179688 -32.578125 4.476562 -31.355469 4.816406 -29.617188 C 4.855469 -29.253906 4.804688 -28.84375 4.707031 -28.480469 L 4.707031 -28.25 C 4.457031 -26.980469 4.164062 -25.660156 3.917969 -24.339844 C 3.421875 -21.613281 2.832031 -18.792969 2.425781 -15.972656 C 1.875 -12.652344 1.40625 -8.78125 2.398438 -4.980469 C 3.175781 -2.003906 4.929688 -0.199219 7.609375 0.386719 C 12.203125 1.414062 16.496094 0.972656 20.398438 -0.882812 C 21.273438 -1.28125 22.101562 -1.90625 22.796875 -2.625 C 23.863281 -3.75 24.152344 -4.976562 23.578125 -6.21875 C 22.871094 -7.777344 21.417969 -8.027344 20.367188 -7.953125 Z M 20.367188 -7.953125 "
           id="path51" />
      </g>
    </g>
  </g>
  <g
     fill="#292725"
     fill-opacity="1"
     id="g63">
    <g
       transform="translate(198.897664, 361.286954)"
       id="g61">
      <g
         id="g59" />
    </g>
  </g>
  <g
     fill="#292725"
     fill-opacity="1"
     id="g71">
    <g
       transform="translate(214.141012, 360.48744)"
       id="g69">
      <g
         id="g67">
        <path
           d="M 31.894531 -15.292969 C 30.90625 -16.222656 29.679688 -16.429688 28.351562 -15.910156 C 27.492188 -15.601562 26.640625 -15.058594 25.910156 -14.589844 C 22.371094 -12.386719 18.015625 -10.257812 12.609375 -11.394531 C 8.082031 -12.375 4.972656 -15.777344 4.734375 -20.089844 C 4.667969 -21.484375 4.632812 -23.308594 5.171875 -24.902344 C 7.609375 -32.425781 11.710938 -35.382812 18.480469 -34.449219 C 19.398438 -34.347656 20.207031 -34.316406 20.890625 -34.394531 C 21.796875 -34.527344 22.484375 -34.984375 22.769531 -35.714844 C 23.023438 -36.386719 22.878906 -37.152344 22.335938 -37.8125 C 21.726562 -38.554688 20.851562 -39.226562 19.78125 -39.757812 C 16.945312 -41.117188 13.738281 -41.34375 10.730469 -40.589844 C 8.121094 -39.933594 5.65625 -38.515625 3.691406 -36.425781 C -0.617188 -31.863281 -2.769531 -26.761719 -2.832031 -21.199219 C -2.867188 -13.855469 0.0117188 -8.558594 5.691406 -5.425781 C 9.949219 -3.0625 15.015625 -2.359375 20.699219 -3.316406 C 24.449219 -4.492188 27.65625 -6.144531 30.515625 -8.414062 C 31.378906 -9.101562 32.164062 -10.285156 32.792969 -11.710938 C 33.320312 -12.972656 32.988281 -14.300781 31.894531 -15.292969 Z M 31.894531 -15.292969 "
           id="path65" />
      </g>
    </g>
  </g>
  <g
     fill="#292725"
     fill-opacity="1"
     id="g79">
    <g
       transform="translate(252.971587, 350.37335)"
       id="g77">
      <g
         id="g75">
        <path
           d="M 27.882812 -22.171875 C 27.476562 -22.683594 27.007812 -23.316406 26.476562 -23.867188 C 20.414062 -30.425781 13.082031 -35.4375 6.097656 -39.960938 C 4.363281 -41.085938 2.753906 -41.25 1.367188 -40.558594 C 0.550781 -40.152344 -0.1875 -39.480469 -0.863281 -38.484375 C -1.660156 -37.222656 -2.210938 -35.875 -2.359375 -34.734375 C -2.707031 -32.371094 -2.753906 -29.902344 -2.71875 -27.78125 C -2.664062 -23.988281 -2.527344 -20.847656 -2.289062 -17.910156 C -1.910156 -13.363281 -1.449219 -9.566406 -0.90625 -6.019531 C -0.625 -4.019531 0.964844 -3.078125 2.269531 -3.117188 C 3.839844 -3.234375 4.820312 -4.4375 4.988281 -6.453125 C 5.050781 -7.453125 5.054688 -8.472656 5.054688 -9.492188 C 5.058594 -10.410156 5.058594 -11.429688 5.144531 -12.390625 C 5.164062 -13.0625 5.675781 -13.980469 6.25 -14.261719 C 8.390625 -15.277344 10.554688 -16.253906 12.679688 -17.207031 C 14.269531 -17.898438 15.882812 -18.648438 17.476562 -19.339844 C 18.925781 -20.007812 19.738281 -19.394531 20.410156 -18.660156 C 21.347656 -17.597656 22.179688 -16.839844 23.015625 -16.289062 C 24.605469 -15.246094 26.460938 -15.40625 27.746094 -16.605469 C 29.054688 -17.867188 29.242188 -19.742188 28.246094 -21.746094 C 28.125 -21.886719 28.003906 -22.03125 27.882812 -22.171875 Z M 5.222656 -22.363281 L 4.042969 -32.925781 L 12.859375 -26.160156 Z M 5.222656 -22.363281 "
           id="path73" />
      </g>
    </g>
  </g>
  <g
     fill="#292725"
     fill-opacity="1"
     id="g87">
    <g
       transform="translate(288.103507, 332.24272)"
       id="g85">
      <g
         id="g83">
        <path
           d="M -0.0898438 -42.367188 C -0.433594 -42.214844 -0.777344 -42.066406 -1.128906 -41.851562 C -2.46875 -41.046875 -3.75 -40.167969 -4.976562 -39.21875 C -7.464844 -37.292969 -9.757812 -35.117188 -11.949219 -32.957031 C -13.355469 -31.640625 -14.765625 -30.261719 -16.234375 -28.953125 C -16.269531 -28.925781 -16.277344 -28.863281 -16.347656 -28.804688 L -16.429688 -28.6875 C -17.609375 -27.082031 -17.742188 -25.539062 -16.691406 -24.332031 C -15.734375 -23.167969 -14.265625 -22.980469 -12.46875 -23.792969 C -12.054688 -24 -11.664062 -24.242188 -11.242188 -24.511719 C -10.328125 -25.046875 -9.441406 -25.617188 -8.558594 -26.1875 L -7.253906 -26.964844 L -6.746094 -26.378906 C -6.605469 -26.199219 -6.492188 -26.054688 -6.355469 -25.871094 C -5.378906 -24.609375 -4.4375 -23.320312 -3.496094 -22.03125 C -1.167969 -18.871094 1.25 -15.671875 3.679688 -12.53125 C 4.542969 -11.414062 5.710938 -10.355469 7.007812 -9.574219 C 8.304688 -8.789062 9.78125 -8.894531 11.078125 -9.898438 C 12.34375 -10.875 12.8125 -12.277344 12.324219 -13.804688 C 11.988281 -14.984375 11.414062 -16.097656 10.710938 -16.933594 C 8.796875 -19.257812 6.730469 -21.410156 4.976562 -23.222656 C 3.339844 -24.898438 1.664062 -26.539062 -0.0703125 -28.257812 C -0.882812 -29.011719 -1.6875 -29.828125 -2.496094 -30.648438 L -2.902344 -31.023438 L 0.417969 -33.589844 C 0.777344 -33.871094 1.136719 -34.148438 1.527344 -34.390625 C 2.285156 -34.976562 3.113281 -35.621094 3.84375 -36.242188 C 5.28125 -37.585938 5.628906 -39.523438 4.65625 -41.078125 C 3.675781 -42.570312 1.824219 -43.097656 -0.0898438 -42.367188 Z M -0.0898438 -42.367188 "
           id="path81" />
      </g>
    </g>
  </g>
</svg>
