<svg xmlns="http://www.w3.org/2000/svg" xmlns:xlink="http://www.w3.org/1999/xlink" width="35.93" zoomAndPan="magnify" viewBox="0 0 375 374.999991" height="35.93" preserveAspectRatio="xMidYMid meet" version="1.0"><defs><g/><clipPath id="58ace4f632"><path d="M 24.273438 24.601562 L 336.273438 24.601562 L 336.273438 336.601562 L 24.273438 336.601562 Z M 24.273438 24.601562 " clip-rule="nonzero"/></clipPath><clipPath id="9911d8031f"><path d="M 92 116 L 279 116 L 279 280.742188 L 92 280.742188 Z M 92 116 " clip-rule="nonzero"/></clipPath><clipPath id="f0af345282"><path d="M 94 122 L 278 122 L 278 280.742188 L 94 280.742188 Z M 94 122 " clip-rule="nonzero"/></clipPath><clipPath id="979c2220bc"><path d="M 93 138 L 246 138 L 246 280.742188 L 93 280.742188 Z M 93 138 " clip-rule="nonzero"/></clipPath><clipPath id="4c429a3752"><path d="M 90 114.992188 L 279.910156 114.992188 L 279.910156 280.742188 L 90 280.742188 Z M 90 114.992188 " clip-rule="nonzero"/></clipPath><clipPath id="13e2f04520"><path d="M 283 298 L 352 298 L 352 350.195312 L 283 350.195312 Z M 283 298 " clip-rule="nonzero"/></clipPath><clipPath id="2e5bea0dae"><path d="M 73 283.445312 L 301 283.445312 L 301 335 L 73 335 Z M 73 283.445312 " clip-rule="nonzero"/></clipPath><clipPath id="a4f63ea78f"><path d="M 23 298 L 92 298 L 92 350.195312 L 23 350.195312 Z M 23 298 " clip-rule="nonzero"/></clipPath><clipPath id="44d5f04f59"><path d="M 138 53.835938 L 155 53.835938 L 155 97 L 138 97 Z M 138 53.835938 " clip-rule="nonzero"/></clipPath><clipPath id="424f4ad0e5"><path d="M 152.097656 60.496094 L 180 60.496094 L 180 113.066406 L 152.097656 113.066406 Z M 152.097656 60.496094 " clip-rule="nonzero"/></clipPath><clipPath id="8f221d2355"><path d="M 242.640625 73.449219 L 253.742188 73.449219 L 253.742188 80.480469 L 242.640625 80.480469 Z M 242.640625 73.449219 " clip-rule="nonzero"/></clipPath></defs><rect x="-37.5" width="450" fill="#ffffff" y="-37.499999" height="449.999989" fill-opacity="1"/><rect x="-37.5" width="450" fill="#ffffff" y="-37.499999" height="449.999989" fill-opacity="1"/><rect x="-37.5" width="450" fill="#fae8e0" y="-37.499999" height="449.999989" fill-opacity="1"/><g clip-path="url(#58ace4f632)"><path fill="#2e0a08" d="M 326.621094 222.199219 C 322.664062 235.664062 316.625 248.441406 309.132812 260.207031 C 302.945312 269.78125 295.90625 278.78125 288.003906 286.96875 C 286.980469 288.085938 285.839844 289.085938 284.753906 290.144531 C 283.648438 291.179688 282.578125 292.25 281.449219 293.261719 L 278.023438 296.242188 L 276.308594 297.734375 L 274.53125 299.144531 L 270.984375 301.980469 C 269.78125 302.902344 268.539062 303.769531 267.320312 304.671875 C 264.914062 306.511719 262.355469 308.132812 259.847656 309.835938 C 259.484375 310.082031 259.105469 310.335938 258.710938 310.601562 C 258.300781 310.847656 257.875 311.101562 257.433594 311.367188 C 256.546875 311.898438 255.597656 312.46875 254.582031 313.074219 C 252.578125 314.332031 250.210938 315.515625 247.652344 316.875 C 247.007812 317.207031 246.363281 317.570312 245.679688 317.894531 C 244.996094 318.214844 244.300781 318.539062 243.589844 318.867188 C 242.167969 319.523438 240.691406 320.207031 239.171875 320.910156 C 236.054688 322.128906 232.804688 323.589844 229.261719 324.726562 C 215.265625 329.800781 197.800781 332.9375 180.273438 333.007812 C 162.746094 332.9375 145.277344 329.800781 131.285156 324.726562 C 127.738281 323.589844 124.488281 322.128906 121.371094 320.910156 C 119.851562 320.207031 118.378906 319.523438 116.957031 318.867188 C 116.246094 318.539062 115.546875 318.214844 114.863281 317.898438 C 114.183594 317.570312 113.539062 317.207031 112.894531 316.875 C 110.335938 315.515625 107.964844 314.332031 105.960938 313.074219 C 104.949219 312.46875 103.996094 311.898438 103.113281 311.367188 C 102.671875 311.105469 102.246094 310.847656 101.835938 310.601562 C 101.441406 310.335938 101.058594 310.082031 100.699219 309.839844 C 91.175781 303.597656 82.230469 296.511719 74.101562 288.546875 C 65.523438 279.980469 58.027344 270.382812 51.414062 260.207031 C 43.917969 248.441406 37.878906 235.664062 33.921875 222.199219 C 29.804688 208.777344 27.902344 194.691406 27.777344 180.601562 C 27.902344 166.515625 29.804688 152.429688 33.921875 139.007812 C 37.878906 125.542969 43.917969 112.765625 51.414062 101 C 57.597656 91.421875 64.636719 82.421875 72.542969 74.238281 C 73.5625 73.121094 74.703125 72.117188 75.789062 71.0625 C 76.894531 70.027344 77.96875 68.957031 79.09375 67.945312 L 82.519531 64.964844 L 84.234375 63.472656 L 86.011719 62.058594 L 89.5625 59.222656 C 90.765625 58.304688 92.003906 57.4375 93.222656 56.535156 C 95.628906 54.691406 98.191406 53.074219 100.699219 51.367188 C 101.058594 51.125 101.4375 50.871094 101.835938 50.605469 C 102.242188 50.359375 102.667969 50.101562 103.109375 49.835938 C 103.996094 49.308594 104.945312 48.738281 105.960938 48.132812 C 107.964844 46.875 110.335938 45.691406 112.890625 44.328125 C 113.535156 44 114.179688 43.636719 114.863281 43.308594 C 115.546875 42.992188 116.242188 42.667969 116.953125 42.335938 C 118.375 41.679688 119.851562 41 121.371094 40.296875 C 124.488281 39.078125 127.738281 37.617188 131.28125 36.480469 C 145.277344 31.40625 162.742188 28.269531 180.273438 28.195312 C 197.796875 28.269531 215.265625 31.40625 229.257812 36.480469 C 232.804688 37.617188 236.054688 39.078125 239.171875 40.296875 C 240.691406 41 242.164062 41.679688 243.589844 42.335938 C 244.300781 42.667969 244.996094 42.992188 245.679688 43.308594 C 246.359375 43.632812 247.007812 44 247.648438 44.328125 C 250.207031 45.6875 252.578125 46.875 254.582031 48.132812 C 255.59375 48.738281 256.546875 49.308594 257.429688 49.835938 C 257.875 50.101562 258.300781 50.355469 258.707031 50.605469 C 259.101562 50.867188 259.484375 51.125 259.84375 51.367188 C 269.367188 57.605469 278.3125 64.695312 286.445312 72.65625 C 295.019531 81.222656 302.519531 90.820312 309.128906 100.996094 C 316.625 112.765625 322.664062 125.542969 326.621094 139.007812 C 330.738281 152.429688 332.644531 166.515625 332.765625 180.601562 C 332.644531 194.691406 330.738281 208.777344 326.621094 222.199219 Z M 336.269531 180.5 L 336.265625 180.488281 C 336.140625 166.101562 334.207031 151.710938 330.015625 137.988281 C 325.984375 124.21875 319.8125 111.152344 312.117188 99.152344 L 308.417969 93.59375 C 308.417969 93.59375 307.347656 92.097656 305.746094 89.855469 C 304.199219 87.566406 301.835938 84.746094 299.582031 81.84375 C 297.148438 79.089844 294.816406 76.246094 292.855469 74.308594 C 290.949219 72.316406 289.679688 70.992188 289.679688 70.992188 C 289.679688 70.992188 289.359375 70.664062 288.777344 70.109375 C 288.203125 69.550781 287.375 68.75 286.386719 67.796875 C 284.453125 65.828125 281.648438 63.457031 278.898438 61.023438 C 277.484375 59.847656 276.03125 58.726562 274.691406 57.644531 C 274.015625 57.109375 273.367188 56.589844 272.746094 56.101562 C 272.109375 55.636719 271.503906 55.203125 270.945312 54.800781 C 268.710938 53.1875 267.21875 52.113281 267.21875 52.113281 C 267.21875 52.113281 266.894531 51.847656 266.371094 51.507812 C 265.851562 51.160156 265.160156 50.699219 264.46875 50.234375 C 263.082031 49.304688 261.695312 48.378906 261.695312 48.378906 C 261.324219 48.128906 260.9375 47.867188 260.53125 47.59375 C 260.117188 47.339844 259.679688 47.078125 259.230469 46.804688 C 258.324219 46.261719 257.351562 45.675781 256.316406 45.054688 C 254.269531 43.765625 251.84375 42.546875 249.230469 41.152344 C 248.570312 40.8125 247.910156 40.441406 247.214844 40.105469 C 246.515625 39.777344 245.800781 39.445312 245.074219 39.109375 C 243.621094 38.433594 242.109375 37.734375 240.554688 37.015625 C 237.367188 35.761719 234.039062 34.265625 230.414062 33.097656 C 216.089844 27.894531 198.207031 24.671875 180.273438 24.601562 C 162.335938 24.671875 144.453125 27.894531 130.128906 33.101562 C 126.503906 34.265625 123.175781 35.761719 119.988281 37.015625 C 118.429688 37.734375 116.925781 38.433594 115.46875 39.109375 C 114.742188 39.449219 114.027344 39.78125 113.328125 40.105469 C 112.632812 40.441406 111.972656 40.8125 111.3125 41.152344 C 108.695312 42.546875 106.273438 43.765625 104.226562 45.054688 C 103.191406 45.675781 102.21875 46.261719 101.3125 46.804688 C 100.863281 47.078125 100.425781 47.34375 100.011719 47.59375 C 99.605469 47.867188 99.21875 48.128906 98.847656 48.378906 C 98.847656 48.378906 97.460938 49.304688 96.078125 50.234375 C 95.382812 50.699219 94.691406 51.160156 94.171875 51.511719 C 93.648438 51.847656 93.324219 52.113281 93.324219 52.113281 C 93.324219 52.113281 91.832031 53.1875 89.601562 54.800781 C 89.039062 55.203125 88.433594 55.636719 87.796875 56.101562 C 87.179688 56.589844 86.527344 57.109375 85.851562 57.644531 C 84.511719 58.726562 83.058594 59.847656 81.644531 61.023438 C 78.894531 63.457031 76.089844 65.828125 74.15625 67.796875 C 73.167969 68.75 72.34375 69.550781 71.765625 70.109375 C 71.183594 70.664062 70.863281 70.992188 70.863281 70.992188 C 70.863281 70.992188 69.59375 72.316406 67.6875 74.308594 C 65.726562 76.246094 63.394531 79.089844 60.964844 81.84375 C 58.707031 84.746094 56.34375 87.566406 54.800781 89.855469 C 53.195312 92.097656 52.125 93.59375 52.125 93.59375 L 48.425781 99.152344 C 40.730469 111.152344 34.558594 124.222656 30.527344 137.988281 C 26.339844 151.710938 24.402344 166.105469 24.277344 180.488281 L 24.273438 180.5 L 24.273438 180.707031 L 24.277344 180.71875 C 24.402344 195.101562 26.339844 209.496094 30.527344 223.21875 C 34.558594 236.984375 40.730469 250.050781 48.425781 262.050781 L 52.125 267.613281 C 52.125 267.613281 53.195312 269.109375 54.800781 271.351562 C 56.34375 273.640625 58.707031 276.460938 60.964844 279.363281 C 63.394531 282.117188 65.726562 284.960938 67.6875 286.898438 C 69.59375 288.886719 70.863281 290.214844 70.863281 290.214844 C 70.863281 290.214844 71.183594 290.542969 71.765625 291.097656 C 72.34375 291.65625 73.167969 292.453125 74.15625 293.410156 C 76.089844 295.378906 78.894531 297.75 81.644531 300.183594 C 83.058594 301.355469 84.511719 302.480469 85.851562 303.558594 C 86.527344 304.097656 87.179688 304.613281 87.796875 305.105469 C 88.433594 305.566406 89.039062 306.003906 89.601562 306.40625 C 91.832031 308.019531 93.324219 309.09375 93.324219 309.09375 C 93.324219 309.09375 93.648438 309.355469 94.171875 309.695312 C 94.691406 310.042969 95.386719 310.507812 96.078125 310.972656 C 97.460938 311.898438 98.847656 312.828125 98.847656 312.828125 C 99.21875 313.078125 99.605469 313.339844 100.011719 313.613281 C 100.429688 313.867188 100.863281 314.128906 101.3125 314.398438 C 102.21875 314.945312 103.191406 315.527344 104.226562 316.152344 C 106.273438 317.441406 108.699219 318.660156 111.316406 320.054688 C 111.972656 320.394531 112.632812 320.765625 113.328125 321.101562 C 114.027344 321.425781 114.742188 321.761719 115.46875 322.097656 C 116.925781 322.773438 118.433594 323.46875 119.988281 324.191406 C 123.175781 325.445312 126.503906 326.9375 130.132812 328.109375 C 144.453125 333.308594 162.335938 336.53125 180.273438 336.601562 C 198.207031 336.53125 216.089844 333.308594 230.414062 328.105469 C 234.039062 326.9375 237.367188 325.445312 240.558594 324.191406 C 242.113281 323.46875 243.621094 322.773438 245.074219 322.097656 C 245.800781 321.757812 246.515625 321.425781 247.214844 321.101562 C 247.910156 320.765625 248.570312 320.394531 249.230469 320.054688 C 251.847656 318.660156 254.269531 317.441406 256.316406 316.152344 C 257.351562 315.527344 258.324219 314.945312 259.230469 314.398438 C 259.679688 314.128906 260.117188 313.863281 260.53125 313.613281 C 260.9375 313.335938 261.324219 313.078125 261.695312 312.828125 C 261.695312 312.828125 263.082031 311.898438 264.46875 310.972656 C 265.160156 310.507812 265.851562 310.042969 266.371094 309.695312 C 266.894531 309.355469 267.21875 309.09375 267.21875 309.09375 C 267.21875 309.09375 268.710938 308.019531 270.945312 306.40625 C 271.503906 306.003906 272.109375 305.566406 272.746094 305.105469 C 273.367188 304.613281 274.015625 304.097656 274.691406 303.558594 C 276.03125 302.480469 277.484375 301.355469 278.898438 300.183594 C 281.648438 297.75 284.453125 295.378906 286.386719 293.410156 C 287.375 292.453125 288.203125 291.65625 288.777344 291.097656 C 289.359375 290.542969 289.679688 290.214844 289.679688 290.214844 C 289.679688 290.214844 290.949219 288.886719 292.855469 286.898438 C 294.816406 284.960938 297.148438 282.117188 299.582031 279.363281 C 301.835938 276.460938 304.203125 273.640625 305.746094 271.351562 C 307.347656 269.105469 308.417969 267.613281 308.417969 267.613281 L 312.117188 262.050781 C 319.8125 250.050781 325.984375 236.984375 330.015625 223.21875 C 334.207031 209.496094 336.140625 195.101562 336.265625 180.71875 L 336.269531 180.707031 L 336.273438 180.601562 L 336.269531 180.5 " fill-opacity="1" fill-rule="nonzero"/></g><g clip-path="url(#9911d8031f)"><path fill="#ffffff" d="M 278.058594 267.804688 L 277.390625 280.722656 L 230.3125 280.722656 L 231.148438 267.804688 Z M 267.25 211.175781 C 267.25 211.175781 268.449219 190.074219 250.6875 168.21875 C 254.757812 148.019531 249.300781 120.960938 244.117188 116.980469 C 234.332031 117.550781 213.894531 124.707031 202.542969 142.707031 C 191.046875 138.617188 174.828125 137.539062 158.464844 141.617188 C 158.464844 141.617188 139.101562 121.296875 116.394531 116.980469 C 105.375 125.007812 108.828125 164.132812 108.714844 169.050781 C 101.035156 182.726562 71.984375 224.527344 119.734375 253.839844 C 113.390625 270.140625 110.863281 280.5 110.863281 280.5 L 228.585938 280.726562 C 228.585938 280.726562 230.761719 257.804688 233.101562 246.460938 C 235.4375 235.117188 237.613281 216.09375 242.609375 213.867188 C 247.609375 211.640625 251.515625 216.925781 251.515625 216.925781 C 251.515625 216.925781 257.164062 203.078125 261.574219 215.421875 C 260.308594 210.753906 267.25 211.175781 267.25 211.175781 Z M 267.25 211.175781 " fill-opacity="1" fill-rule="nonzero"/></g><path fill="#efb07d" d="M 236.15625 228.769531 C 239.828125 210.253906 247.339844 212.085938 251.515625 216.925781 C 252.183594 211.253906 258.191406 209.417969 261.699219 213.921875 C 275.222656 200.578125 277.390625 240.171875 277.390625 240.171875 L 277.390625 265.800781 C 277.390625 265.800781 274.363281 275.644531 253.605469 275.644531 C 235.488281 275.644531 230.3125 267.636719 230.3125 267.636719 C 230.3125 267.636719 232.480469 247.285156 236.15625 228.769531 Z M 159.050781 141.855469 C 155.042969 135.867188 129.25 114.992188 116.726562 117 C 102.539062 133.347656 109.382812 169.050781 109.382812 169.050781 C 109.382812 169.050781 97.664062 184.710938 96.269531 199.84375 C 96.71875 211.003906 127.085938 230.554688 161.804688 201.515625 C 194.800781 173.921875 168.234375 140.1875 168.234375 140.1875 C 168.234375 140.1875 163.726562 140.507812 159.050781 141.855469 Z M 241.285156 126.675781 L 230.3125 148.917969 C 230.3125 148.917969 240.117188 157.039062 242.699219 164.042969 C 245.28125 157.371094 245.96875 140.355469 241.285156 126.675781 Z M 241.285156 126.675781 " fill-opacity="1" fill-rule="nonzero"/><g clip-path="url(#f0af345282)"><path fill="#ef5454" d="M 277.390625 280.722656 C 277.390625 280.722656 277.390625 280.722656 257.109375 280.722656 C 272.882812 279.296875 274.808594 236.78125 274.808594 236.78125 Z M 128.527344 148.917969 C 128.527344 148.917969 119.84375 130.902344 118.398438 126.675781 C 114.726562 135.574219 114.121094 157.816406 116.980469 164.042969 C 122.613281 157.1875 128.527344 148.917969 128.527344 148.917969 Z M 228.679688 280.722656 C 230.535156 269.097656 233.085938 253.101562 235.136719 240.203125 C 235.128906 240.207031 235.117188 240.210938 235.109375 240.214844 L 237.207031 217.0625 C 237.074219 217.226562 236.902344 217.449219 236.695312 217.746094 C 235.105469 220.042969 231.503906 226.664062 228.597656 242.394531 C 216.675781 245.9375 200.972656 248.378906 180.304688 248.519531 C 100.164062 247.96875 94.703125 212.855469 94.703125 212.855469 C 94.703125 212.855469 93.257812 217.589844 96.332031 225.324219 C 95.4375 224.566406 94.753906 223.96875 94.378906 223.597656 C 96.742188 241.335938 119.84375 255.015625 119.84375 255.015625 L 110.863281 280.726562 C 110.863281 280.726562 120.289062 280.726562 130.53125 280.726562 C 136.761719 260.394531 144.296875 260.929688 144.296875 260.929688 C 159.984375 264.359375 175.046875 265.285156 180.304688 265.285156 C 185.5625 265.285156 200.625 264.359375 216.316406 260.929688 C 216.316406 260.929688 220.167969 260.65625 224.640625 267.9375 C 223.015625 278.296875 222.492188 280.714844 222.492188 280.714844 Z M 202.117188 142.707031 L 211.355469 145.359375 C 211.355469 145.359375 214.804688 132.953125 229.886719 122.476562 C 219.367188 125.34375 208.015625 132.933594 202.117188 142.707031 Z M 129.992188 122.476562 C 145.074219 132.953125 148.523438 145.359375 148.523438 145.359375 L 157.761719 142.707031 C 151.863281 132.933594 140.511719 125.34375 129.992188 122.476562 Z M 186.402344 220.210938 C 186.402344 220.210938 178.835938 221.949219 172.378906 220.019531 C 173.269531 227.433594 184.175781 228.101562 186.402344 220.210938 Z M 186.402344 220.210938 " fill-opacity="0.298" fill-rule="nonzero"/></g><g clip-path="url(#979c2220bc)"><path fill="#ffffff" d="M 110.539062 138.589844 C 110.539062 138.589844 108.847656 161.828125 116.796875 172.945312 C 108.378906 179.058594 93.957031 198.917969 94.363281 215.089844 C 91.1875 204.582031 95.742188 186.617188 108.324219 170.550781 C 107.046875 161.042969 108.324219 147.960938 110.539062 138.589844 Z M 233.425781 258.753906 C 237.933594 225.34375 245.632812 215.117188 245.632812 215.117188 C 232.964844 211.699219 232.257812 243.894531 233.425781 258.753906 Z M 103.398438 236.78125 C 103.398438 236.78125 118.898438 250.957031 128.414062 252.457031 C 124.574219 257.296875 116.796875 280.726562 116.796875 280.726562 L 109.882812 280.726562 L 118.898438 254.460938 C 118.898438 254.460938 103.753906 246.964844 103.398438 236.78125 Z M 103.398438 236.78125 " fill-opacity="1" fill-rule="nonzero"/></g><g clip-path="url(#4c429a3752)"><path fill="#2b0806" d="M 279.898438 280.722656 C 277.769531 280.722656 274.972656 280.722656 274.972656 280.722656 C 274.929688 272.601562 276.359375 230.609375 272.097656 216.460938 C 269.839844 208.972656 262.804688 212.550781 261.847656 218.785156 C 261.210938 215.65625 260.488281 212.289062 257.285156 212.625 C 253.332031 213.035156 251.714844 220.015625 251.714844 220.015625 C 251.714844 220.015625 248.539062 214.929688 245.632812 215.117188 C 241.046875 215.417969 238.027344 222.152344 235.824219 236.488281 C 234.589844 244.550781 231.410156 280.722656 231.410156 280.722656 L 227.3125 280.722656 C 227.3125 280.722656 229.5625 255.789062 230.285156 250.386719 L 230.308594 250.234375 L 230.890625 246.023438 C 232.210938 236.765625 233.675781 228.371094 235.09375 223.058594 C 238.777344 209.238281 247.140625 207.78125 250.910156 214.421875 C 252.84375 207.304688 261.238281 206.117188 262.125 212.378906 C 262.398438 211.070312 263.707031 209.496094 265.542969 208.839844 C 264.8125 198.164062 260.136719 185.289062 248.867188 169.882812 C 251.332031 164.710938 253.960938 140.378906 243.613281 119.003906 C 238.382812 119.003906 220.855469 123.28125 203.9375 141.660156 C 206.808594 142.65625 209.511719 143.871094 211.78125 145.359375 C 211.074219 145.386719 195.625 141.003906 180.171875 141.003906 C 164.71875 141.003906 149.265625 145.386719 148.5625 145.359375 C 150.832031 143.871094 153.53125 142.65625 156.40625 141.660156 C 139.488281 123.28125 121.960938 119.003906 116.726562 119.003906 C 106.382812 140.378906 109.011719 164.710938 111.476562 169.882812 C 70.648438 225.691406 116.316406 248.304688 122.820312 253.375 C 119.148438 260.882812 112.386719 280.722656 112.386719 280.722656 L 107.851562 280.722656 C 107.851562 280.722656 112.238281 266.894531 117.582031 254.550781 C 76.828125 230.609375 90.015625 191.402344 106.710938 170.550781 C 101.703125 141.027344 112.054688 115.667969 116.058594 114.992188 C 142.609375 120.066406 156.175781 135.875 159.726562 140.625 C 164.496094 139.289062 172.332031 137.335938 180.171875 137.335938 C 188 137.335938 195.832031 139.285156 200.613281 140.625 C 204.164062 135.875 217.730469 120.066406 244.28125 114.992188 C 248.289062 115.667969 258.640625 141.027344 253.632812 170.550781 C 261.554688 180.445312 268.679688 194.472656 269.632812 209.042969 C 271.007812 209.648438 272.453125 210.835938 273.875 212.867188 C 276.53125 216.660156 276.933594 221.550781 278.1875 231.398438 C 279.34375 240.492188 279.898438 275.351562 279.898438 280.722656 Z M 241.285156 126.675781 C 241.285156 126.675781 233.671875 137.445312 228.078125 148.910156 C 231.828125 151.367188 239.546875 159.375 242.699219 164.042969 C 244.183594 161.375 236.472656 150.058594 232.546875 147.863281 C 236.632812 143.527344 241.285156 126.675781 241.285156 126.675781 Z M 118.398438 126.675781 C 118.398438 126.675781 126.007812 137.445312 131.605469 148.910156 C 127.851562 151.367188 120.136719 159.375 116.980469 164.042969 C 115.5 161.375 123.207031 150.058594 127.132812 147.863281 C 123.046875 143.527344 118.398438 126.675781 118.398438 126.675781 Z M 139.636719 180.589844 C 131.136719 182.59375 125.378906 191.066406 123.625 198.09375 C 123.355469 199.164062 123.933594 200.015625 125.125 200.3125 C 127.054688 200.796875 130.5625 199.8125 131.078125 197.746094 C 131.753906 195.046875 132.898438 192.597656 134.488281 190.464844 C 135.683594 188.855469 138.023438 186.078125 140.226562 185.527344 C 141.996094 185.085938 143.691406 187.980469 144.601562 189.535156 L 144.816406 189.902344 C 146.375 192.53125 147.632812 195.578125 148.558594 198.957031 C 148.882812 200.140625 150.046875 200.609375 151.335938 200.609375 C 151.875 200.609375 152.4375 200.527344 152.96875 200.382812 C 155.128906 199.792969 156.367188 198.386719 155.976562 196.964844 C 152.574219 184.535156 146.925781 178.871094 139.636719 180.589844 Z M 236.050781 196.964844 C 232.648438 184.535156 226.996094 178.871094 219.710938 180.589844 C 211.210938 182.59375 205.453125 191.066406 203.699219 198.09375 C 203.535156 198.746094 203.6875 199.335938 204.125 199.757812 C 205.042969 200.644531 206.875 200.527344 208.167969 200.15625 C 209.773438 199.695312 210.890625 198.796875 211.152344 197.746094 C 211.828125 195.046875 212.972656 192.59375 214.5625 190.464844 C 215.757812 188.855469 218.09375 186.078125 220.296875 185.527344 C 222.070312 185.089844 223.765625 187.980469 224.675781 189.535156 L 224.886719 189.902344 C 226.445312 192.527344 227.707031 195.574219 228.632812 198.957031 C 228.839844 199.710938 229.4375 200.25 230.320312 200.484375 C 230.660156 200.570312 231.027344 200.613281 231.410156 200.613281 C 232.84375 200.613281 234.480469 200.03125 235.386719 199.113281 C 236.019531 198.476562 236.253906 197.710938 236.050781 196.964844 Z M 192.164062 200.707031 C 191.257812 201.1875 190.832031 202.730469 191.714844 204.386719 C 192.226562 205.347656 191.679688 206.339844 191.308594 206.847656 C 190.335938 208.171875 188.585938 208.976562 187.246094 208.726562 C 184.933594 208.292969 183.539062 205.578125 182.585938 203.257812 C 182.136719 202.175781 181.203125 201.503906 180.140625 201.503906 C 179.078125 201.503906 178.144531 202.175781 177.699219 203.257812 C 176.914062 205.160156 175.453125 208.703125 173.039062 209.152344 C 172.011719 209.347656 170.730469 208.847656 169.707031 207.867188 C 168.199219 206.347656 168.648438 204.363281 168.8125 203.824219 C 168.828125 203.785156 168.84375 203.742188 168.859375 203.6875 L 169.210938 202.75 L 169.035156 202.75 C 169.082031 201.769531 168.691406 200.929688 167.988281 200.648438 C 167.386719 200.402344 166.5 200.589844 165.828125 201.847656 C 164.582031 204.1875 164.511719 206.972656 165.644531 209.292969 C 166.695312 211.453125 168.671875 212.933594 171.070312 213.359375 C 174.511719 213.96875 177.632812 212.515625 180.140625 209.15625 C 182.273438 212.019531 184.851562 213.496094 187.695312 213.496094 C 188.191406 213.496094 188.699219 213.449219 189.210938 213.359375 C 191.609375 212.933594 193.585938 211.453125 194.636719 209.292969 C 195.769531 206.972656 195.699219 204.1875 194.453125 201.847656 C 193.726562 200.492188 192.765625 200.386719 192.164062 200.707031 Z M 192.164062 200.707031 " fill-opacity="1" fill-rule="nonzero"/></g><path fill="#ef5454" d="M 256.46875 234.328125 C 255.21875 232.929688 250.226562 229.125 247.015625 235.328125 C 243.808594 241.535156 252.566406 247.738281 256.46875 247.738281 C 260.371094 247.738281 269.128906 241.535156 265.917969 235.328125 C 262.707031 229.125 257.714844 232.929688 256.46875 234.328125 Z M 259.53125 223.875 C 259.53125 221.980469 258.445312 220.445312 257.109375 220.445312 C 255.769531 220.445312 254.683594 221.980469 254.683594 223.875 C 254.683594 225.769531 255.769531 227.304688 257.109375 227.304688 C 258.445312 227.304688 259.53125 225.769531 259.53125 223.875 Z M 267.039062 222.507812 C 265.683594 222.300781 264.324219 223.566406 264.007812 225.328125 C 263.6875 227.09375 264.53125 228.6875 265.886719 228.894531 C 267.246094 229.101562 268.605469 227.839844 268.921875 226.074219 C 269.238281 224.3125 268.398438 222.714844 267.039062 222.507812 Z M 247.460938 229.066406 C 248.835938 228.667969 249.445312 226.917969 248.824219 225.160156 C 248.203125 223.398438 246.585938 222.292969 245.214844 222.6875 C 243.84375 223.085938 243.234375 224.835938 243.855469 226.597656 C 244.476562 228.359375 246.089844 229.464844 247.460938 229.066406 Z M 247.460938 229.066406 " fill-opacity="1" fill-rule="nonzero"/><g clip-path="url(#13e2f04520)"><path fill="#000000" d="M 305.273438 298.855469 L 305.273438 338.847656 L 283.800781 350.183594 L 351.183594 350.183594 L 337.164062 324.519531 L 351.183594 298.855469 L 305.273438 298.855469 " fill-opacity="1" fill-rule="nonzero"/></g><path fill="#000000" d="M 277.503906 339.28125 L 277.503906 348.515625 L 295.003906 339.28125 Z M 277.503906 339.28125 " fill-opacity="1" fill-rule="nonzero"/><g clip-path="url(#2e5bea0dae)"><path fill="#000000" d="M 300.847656 283.460938 L 73.304688 283.460938 L 73.304688 334.867188 L 300.847656 334.867188 L 300.847656 283.460938 " fill-opacity="1" fill-rule="nonzero"/></g><g clip-path="url(#a4f63ea78f)"><path fill="#000000" d="M 68.886719 339.28125 L 68.886719 298.855469 L 23.644531 298.867188 L 37.664062 324.519531 L 23.660156 350.195312 L 91.011719 350.171875 L 68.886719 339.28125 " fill-opacity="1" fill-rule="nonzero"/></g><path fill="#000000" d="M 97.378906 348.511719 L 97.449219 339.28125 L 79.605469 339.28125 Z M 97.378906 348.511719 " fill-opacity="1" fill-rule="nonzero"/><path fill="#ef5454" d="M 125.75 65.117188 C 126.820312 69.789062 135.863281 93.285156 136.984375 96.339844 C 138.222656 99.714844 142.695312 98.871094 142.1875 96.585938 C 141.371094 92.917969 131.207031 65.136719 130.871094 64.269531 C 129.8125 61.542969 125.085938 62.667969 125.75 65.117188 " fill-opacity="1" fill-rule="nonzero"/><g clip-path="url(#44d5f04f59)"><path fill="#ef5454" d="M 141.601562 96.304688 C 141.578125 84.261719 140.210938 55.71875 144.628906 55.71875 C 148.652344 55.71875 148.777344 86.675781 148.4375 91.628906 C 148.273438 93.996094 147.980469 95.753906 150.78125 95.976562 C 152.730469 96.132812 153.519531 95.570312 153.875 93.839844 C 154.550781 90.527344 155.800781 53.835938 145.488281 53.835938 C 135.5 53.835938 139.132812 94.035156 139.785156 95.574219 C 139.90625 95.855469 141.601562 97.867188 141.601562 96.304688 " fill-opacity="1" fill-rule="nonzero"/></g><path fill="#ef5454" d="M 202.839844 97.96875 C 197.792969 97.96875 199.824219 83.898438 199.839844 80.542969 C 201.453125 80.945312 203.851562 80.28125 204.6875 79.789062 C 207.457031 85.894531 206.304688 97.96875 202.839844 97.96875 Z M 197.847656 71.355469 C 201.035156 71.355469 203.589844 76.84375 204.179688 78.308594 C 203.378906 78.960938 201.546875 79.648438 199.847656 79.230469 C 199.910156 76.75 200.308594 76.269531 199.761719 75.441406 C 198.917969 74.152344 196.480469 74.003906 195.234375 74.914062 C 195.199219 73.898438 195.230469 71.355469 197.847656 71.355469 Z M 205.882812 77.59375 C 204.5625 74.574219 202.699219 70 197.433594 70 C 195.355469 70 192.710938 71.355469 192.710938 74.699219 C 192.710938 76.828125 194.167969 78.273438 194.601562 78.640625 C 194.550781 79.628906 190.597656 100 201.898438 100 C 207.441406 100 208.167969 94.023438 208.335938 91.351562 C 208.601562 87.121094 207.777344 82.453125 206.585938 79.328125 " fill-opacity="1" fill-rule="nonzero"/><g clip-path="url(#424f4ad0e5)"><path fill="#ef5454" d="M 177.054688 92.28125 C 177.699219 93.542969 172.5 111.195312 169.289062 111.195312 C 165.097656 111.195312 167.875 94.910156 170.894531 80.65625 C 173.453125 68.558594 173.457031 60.53125 167.195312 60.53125 C 160.597656 60.53125 152.457031 83.554688 152.457031 93.96875 C 152.457031 95.339844 153.363281 95.875 153.875 93.839844 C 154.132812 92.808594 160.082031 63.171875 166.800781 63.171875 C 170.53125 63.171875 153.058594 113.066406 168.527344 113.066406 C 173.957031 113.066406 177.621094 98.070312 178.914062 94.558594 C 179.277344 94.863281 179.632812 95.125 179.976562 95.347656 L 177.054688 92.28125 " fill-opacity="1" fill-rule="nonzero"/></g><path fill="#ef5454" d="M 234.738281 74.597656 C 234.726562 82.617188 233.414062 102.066406 229.964844 101.789062 C 227.808594 101.617188 228.21875 81.300781 228.496094 78.003906 C 228.628906 76.425781 227.441406 75.121094 225.238281 74.964844 C 223.710938 74.851562 223.09375 75.222656 222.8125 76.375 C 222.269531 78.578125 220.65625 103.617188 228.710938 104.371094 C 237.910156 105.234375 236.671875 76.117188 236.160156 75.089844 C 236.066406 74.902344 234.742188 73.558594 234.738281 74.597656 " fill-opacity="1" fill-rule="nonzero"/><path fill="#ef5454" d="M 206.421875 79.449219 C 205.894531 78.65625 208.761719 68.921875 211.019531 68.71875 C 213.96875 68.453125 212.722656 77.128906 211.445312 86.773438 C 210.359375 94.957031 211.035156 100 215.457031 100 C 220.097656 100 224.238281 83.6875 223.621094 76.78125 C 223.539062 75.871094 222.871094 75.574219 222.632812 76.953125 C 222.511719 77.65625 220.101562 98.085938 215.363281 98.113281 C 213.824219 98.117188 224.007812 67.367188 211.445312 67.429688 C 207.609375 67.449219 205.679688 75.648438 204.976562 78.058594 C 204.707031 77.878906 204.441406 77.726562 204.183594 77.601562 L 206.421875 79.449219 " fill-opacity="1" fill-rule="nonzero"/><path fill="#ef5454" d="M 182.179688 76.253906 C 185.472656 75.832031 185.230469 82.28125 180.734375 89.667969 C 179.222656 80.910156 179.839844 76.558594 182.179688 76.253906 Z M 193.148438 76.835938 C 193.4375 82.527344 189.410156 99.675781 185.273438 99.78125 C 183.289062 99.832031 181.414062 93.3125 181.375 91.78125 C 186.351562 85.730469 189.066406 74.554688 182.371094 74.722656 C 175.554688 74.898438 174.097656 80.953125 174.765625 87.09375 C 175.199219 91.097656 178.253906 102.671875 184.453125 101.875 C 191.523438 100.960938 194.796875 85.691406 195.664062 79.292969 L 193.148438 76.835938 " fill-opacity="1" fill-rule="nonzero"/><g clip-path="url(#8f221d2355)"><path fill="#ef5454" d="M 244.890625 80.121094 C 247.867188 78.367188 251.0625 76.867188 253.589844 74.453125 C 254.285156 73.792969 252.375 73.578125 251.976562 73.832031 C 249.074219 75.683594 246.34375 77.859375 243.171875 79.261719 C 242.015625 79.773438 244.136719 80.5625 244.890625 80.121094 " fill-opacity="1" fill-rule="nonzero"/></g><path fill="#ef5454" d="M 245.535156 91.359375 C 247.679688 90.988281 249.835938 90.660156 251.957031 90.175781 C 253.09375 89.917969 251.828125 89.21875 251.21875 89.300781 C 249.128906 89.566406 247.0625 89.988281 244.988281 90.367188 C 243.632812 90.613281 244.566406 91.527344 245.535156 91.359375 " fill-opacity="1" fill-rule="nonzero"/><path fill="#ef5454" d="M 243.816406 99.335938 C 246.140625 101.085938 248.46875 102.835938 250.796875 104.589844 C 251.351562 105.011719 253.589844 104.640625 252.789062 104.007812 C 250.550781 102.230469 248.308594 100.453125 246.066406 98.675781 C 245.609375 98.3125 244.824219 98.246094 244.28125 98.441406 C 243.949219 98.558594 243.3125 98.957031 243.816406 99.335938 " fill-opacity="1" fill-rule="nonzero"/><path fill="#ef5454" d="M 108.367188 77.929688 C 111.800781 78.476562 114.644531 79.960938 117.679688 81.546875 C 117.988281 81.707031 119.535156 81.597656 118.96875 81.046875 C 116.359375 78.515625 112.386719 77.429688 108.859375 77.039062 C 108.007812 76.945312 107.125 77.730469 108.367188 77.929688 " fill-opacity="1" fill-rule="nonzero"/><path fill="#ef5454" d="M 111.738281 91.125 C 114.539062 90.28125 117.335938 89.46875 120.09375 88.488281 C 121.246094 88.074219 119.78125 87.546875 119.171875 87.699219 C 116.28125 88.414062 113.445312 89.289062 110.597656 90.144531 C 109.183594 90.570312 110.941406 91.363281 111.738281 91.125 " fill-opacity="1" fill-rule="nonzero"/><path fill="#ef5454" d="M 117.007812 105.132812 C 119.085938 102.675781 121.371094 100.410156 123.351562 97.867188 C 123.890625 97.175781 121.5625 97.003906 121.132812 97.402344 C 118.742188 99.601562 116.621094 102.0625 114.3125 104.34375 C 113.335938 105.3125 116.328125 105.933594 117.007812 105.132812 " fill-opacity="1" fill-rule="nonzero"/><g fill="#f7f7f7" fill-opacity="1"><g transform="translate(87.989796, 327.387506)"><g><path d="M 25.035156 -5.105469 C 24.507812 -5.929688 23.683594 -6.292969 22.664062 -6.160156 C 22.003906 -6.09375 21.3125 -5.863281 20.71875 -5.664062 C 17.855469 -4.742188 14.429688 -4.019531 10.835938 -5.765625 C 7.839844 -7.246094 6.257812 -10.179688 6.851562 -13.242188 C 7.050781 -14.230469 7.34375 -15.515625 8.003906 -16.535156 C 11.035156 -21.378906 14.429688 -22.730469 19.007812 -20.882812 C 19.632812 -20.652344 20.191406 -20.488281 20.6875 -20.421875 C 21.34375 -20.355469 21.90625 -20.554688 22.234375 -21.015625 C 22.53125 -21.445312 22.5625 -22.003906 22.300781 -22.5625 C 22.003906 -23.191406 21.511719 -23.816406 20.851562 -24.375 C 19.105469 -25.824219 16.898438 -26.550781 14.660156 -26.550781 C 12.714844 -26.550781 10.738281 -25.988281 8.992188 -24.871094 C 5.171875 -22.433594 2.765625 -19.238281 1.746094 -15.351562 C 0.429688 -10.210938 1.515625 -5.996094 4.941406 -2.800781 C 7.511719 -0.394531 10.9375 0.988281 15.085938 1.316406 C 17.917969 1.152344 20.457031 0.558594 22.859375 -0.527344 C 23.585938 -0.855469 24.34375 -1.546875 25.035156 -2.4375 C 25.628906 -3.226562 25.628906 -4.214844 25.035156 -5.105469 Z M 25.035156 -5.105469 "/></g></g></g><g fill="#f7f7f7" fill-opacity="1"><g transform="translate(114.703292, 327.387506)"><g><path d="M 21.410156 -23.089844 C 21.046875 -23.980469 20.324219 -24.472656 19.367188 -24.539062 C 18.316406 -24.605469 17.523438 -24.179688 17.097656 -23.289062 C 16.734375 -22.628906 16.503906 -21.871094 16.402344 -21.046875 C 16.273438 -20.226562 16.207031 -19.367188 16.140625 -18.546875 C 16.074219 -17.589844 16.007812 -16.601562 15.84375 -15.613281 L 15.777344 -15.121094 C 15.449219 -12.914062 15.085938 -10.640625 14.460938 -8.433594 C 14.164062 -7.378906 13.570312 -6.6875 12.78125 -6.390625 C 11.925781 -6.0625 10.871094 -6.257812 9.785156 -6.949219 C 8.101562 -8.070312 7.148438 -9.71875 6.949219 -11.859375 C 6.882812 -12.8125 6.785156 -13.800781 6.71875 -14.757812 C 6.589844 -16.238281 6.457031 -17.753906 6.292969 -19.238281 C 6.191406 -20.355469 6.027344 -21.246094 5.796875 -22.035156 C 5.5 -23.023438 4.742188 -23.617188 3.820312 -23.550781 C 2.898438 -23.484375 2.273438 -22.992188 1.976562 -21.972656 C 1.84375 -21.574219 1.746094 -21.214844 1.710938 -20.882812 C 1.582031 -19.269531 1.449219 -17.65625 1.285156 -16.007812 L 1.21875 -14.855469 L 1.316406 -14.855469 L 1.316406 -14.527344 C 1.316406 -14.230469 1.316406 -13.933594 1.316406 -13.636719 C 1.316406 -13.042969 1.316406 -12.417969 1.351562 -11.824219 C 1.515625 -7.578125 3.359375 -4.347656 6.785156 -2.207031 C 8.960938 -0.890625 11.398438 -0.492188 13.671875 -1.152344 C 15.941406 -1.8125 17.789062 -3.425781 18.90625 -5.664062 C 19.433594 -6.753906 19.929688 -7.90625 20.125 -9.027344 C 20.71875 -12.617188 21.28125 -16.402344 21.839844 -20.984375 C 21.90625 -21.511719 21.773438 -22.234375 21.410156 -23.089844 Z M 21.410156 -23.089844 "/></g></g></g><g fill="#f7f7f7" fill-opacity="1"><g transform="translate(137.826434, 327.387506)"><g><path d="M 18.675781 -24.242188 C 18.414062 -24.308594 18.148438 -24.375 17.855469 -24.410156 C 16.734375 -24.539062 15.613281 -24.605469 14.492188 -24.605469 C 12.222656 -24.605469 9.949219 -24.375 7.742188 -24.113281 C 6.359375 -23.980469 4.941406 -23.816406 3.523438 -23.71875 C 3.492188 -23.71875 3.457031 -23.683594 3.394531 -23.683594 L 3.292969 -23.652344 C 1.910156 -23.253906 1.152344 -22.433594 1.21875 -21.28125 C 1.25 -20.191406 2.007812 -19.433594 3.394531 -19.105469 C 3.722656 -19.039062 4.050781 -19.007812 4.414062 -18.972656 C 5.171875 -18.875 5.929688 -18.808594 6.6875 -18.742188 L 7.773438 -18.609375 L 7.808594 -18.050781 C 7.808594 -17.886719 7.808594 -17.753906 7.808594 -17.589844 C 7.808594 -16.4375 7.773438 -15.285156 7.742188 -14.132812 C 7.675781 -11.296875 7.640625 -8.398438 7.640625 -5.535156 C 7.640625 -4.511719 7.839844 -3.394531 8.234375 -2.371094 C 8.628906 -1.351562 9.519531 -0.757812 10.707031 -0.757812 C 11.859375 -0.757812 12.746094 -1.351562 13.144531 -2.4375 C 13.472656 -3.261719 13.636719 -4.152344 13.605469 -4.941406 C 13.539062 -7.113281 13.308594 -9.257812 13.109375 -11.066406 C 12.914062 -12.746094 12.683594 -14.429688 12.453125 -16.171875 C 12.320312 -16.964844 12.222656 -17.789062 12.121094 -18.609375 L 12.054688 -19.007812 L 15.085938 -19.007812 C 15.414062 -19.007812 15.746094 -19.007812 16.074219 -18.972656 C 16.765625 -18.972656 17.523438 -18.972656 18.214844 -19.007812 C 19.632812 -19.136719 20.6875 -20.09375 20.816406 -21.410156 C 20.917969 -22.695312 20.09375 -23.816406 18.675781 -24.242188 Z M 18.675781 -24.242188 "/></g></g></g><g fill="#f7f7f7" fill-opacity="1"><g transform="translate(159.895529, 327.387506)"><g><path d="M 7.808594 -19.535156 C 7.742188 -20.71875 7.542969 -21.742188 7.246094 -22.628906 C 6.882812 -23.816406 6.027344 -24.507812 4.777344 -24.539062 C 3.589844 -24.605469 2.535156 -23.882812 2.140625 -22.695312 C 1.84375 -21.804688 1.648438 -20.816406 1.546875 -19.796875 C 1.417969 -18.148438 1.351562 -16.503906 1.285156 -14.855469 C 1.25 -14.328125 1.21875 -13.769531 1.21875 -13.242188 L 1.351562 -13.242188 L 1.351562 -12.878906 C 1.351562 -12.15625 1.351562 -11.429688 1.316406 -10.707031 C 1.316406 -9.027344 1.285156 -7.246094 1.382812 -5.535156 C 1.449219 -4.28125 1.8125 -3.03125 2.339844 -2.042969 C 2.765625 -1.285156 3.492188 -0.824219 4.25 -0.824219 C 4.28125 -0.824219 4.28125 -0.824219 4.28125 -0.824219 C 5.105469 -0.824219 5.894531 -1.316406 6.359375 -2.175781 C 6.652344 -2.699219 6.851562 -3.195312 6.882812 -3.65625 L 7.113281 -5.601562 C 7.609375 -10.144531 8.136719 -14.855469 7.808594 -19.535156 Z M 7.808594 -19.535156 "/></g></g></g><g fill="#f7f7f7" fill-opacity="1"><g transform="translate(169.085499, 327.387506)"><g><path d="M 14.625 -5.960938 C 14.164062 -5.929688 13.703125 -5.832031 13.242188 -5.699219 C 12.878906 -5.566406 12.484375 -5.46875 12.121094 -5.402344 C 10.605469 -5.171875 9.257812 -5.007812 8.003906 -4.941406 C 7.707031 -4.90625 7.410156 -5.136719 7.28125 -5.269531 C 7.148438 -5.402344 6.882812 -5.632812 6.882812 -5.929688 C 6.820312 -6.851562 6.820312 -7.808594 6.820312 -8.730469 C 6.820312 -9.058594 6.820312 -9.386719 6.820312 -9.683594 L 6.820312 -10.046875 L 7.179688 -10.046875 C 7.808594 -10.078125 8.433594 -10.113281 9.058594 -10.144531 C 10.574219 -10.210938 12.023438 -10.277344 13.472656 -10.410156 C 14.164062 -10.476562 14.953125 -10.707031 15.710938 -11.066406 C 16.339844 -11.363281 17.03125 -11.988281 16.964844 -13.078125 C 16.867188 -14 16.304688 -14.660156 15.414062 -14.855469 C 14.394531 -15.085938 13.210938 -15.152344 11.988281 -15.054688 C 11.035156 -14.953125 10.046875 -14.757812 9.027344 -14.558594 C 8.5625 -14.460938 8.101562 -14.363281 7.609375 -14.296875 L 7.179688 -14.230469 L 7.179688 -15.84375 C 7.179688 -16.699219 7.179688 -17.523438 7.214844 -18.347656 C 7.214844 -19.203125 7.214844 -19.632812 7.511719 -19.929688 C 7.808594 -20.191406 8.234375 -20.191406 9.058594 -20.160156 L 9.914062 -20.09375 C 11.265625 -20.027344 12.648438 -19.960938 14 -20.027344 C 16.140625 -20.160156 17.558594 -21.378906 17.492188 -23.023438 C 17.492188 -23.75 17.160156 -24.441406 16.601562 -24.9375 C 15.976562 -25.496094 15.121094 -25.824219 14.132812 -25.824219 C 14.03125 -25.824219 13.933594 -25.824219 13.867188 -25.824219 C 11.792969 -25.691406 9.683594 -25.398438 7.675781 -25.101562 L 6.226562 -24.902344 C 5.730469 -24.835938 5.171875 -24.574219 4.742188 -24.34375 C 3.394531 -23.585938 2.898438 -22.695312 3.164062 -21.445312 C 3.195312 -21.179688 3.164062 -20.882812 3.097656 -20.621094 L 3.097656 -20.457031 C 2.933594 -19.535156 2.734375 -18.578125 2.570312 -17.621094 C 2.238281 -15.648438 1.84375 -13.605469 1.582031 -11.5625 C 1.21875 -9.15625 0.921875 -6.359375 1.679688 -3.625 C 2.273438 -1.480469 3.558594 -0.199219 5.5 0.199219 C 8.828125 0.890625 11.925781 0.527344 14.722656 -0.855469 C 15.351562 -1.152344 15.941406 -1.613281 16.4375 -2.140625 C 17.195312 -2.964844 17.390625 -3.855469 16.964844 -4.742188 C 16.4375 -5.863281 15.382812 -6.027344 14.625 -5.960938 Z M 14.625 -5.960938 "/></g></g></g><g fill="#f7f7f7" fill-opacity="1"><g transform="translate(187.827771, 327.387506)"><g/></g></g><g fill="#f7f7f7" fill-opacity="1"><g transform="translate(197.281257, 327.387506)"><g><path d="M 25.035156 -5.105469 C 24.507812 -5.929688 23.683594 -6.292969 22.664062 -6.160156 C 22.003906 -6.09375 21.3125 -5.863281 20.71875 -5.664062 C 17.855469 -4.742188 14.429688 -4.019531 10.835938 -5.765625 C 7.839844 -7.246094 6.257812 -10.179688 6.851562 -13.242188 C 7.050781 -14.230469 7.34375 -15.515625 8.003906 -16.535156 C 11.035156 -21.378906 14.429688 -22.730469 19.007812 -20.882812 C 19.632812 -20.652344 20.191406 -20.488281 20.6875 -20.421875 C 21.34375 -20.355469 21.90625 -20.554688 22.234375 -21.015625 C 22.53125 -21.445312 22.5625 -22.003906 22.300781 -22.5625 C 22.003906 -23.191406 21.511719 -23.816406 20.851562 -24.375 C 19.105469 -25.824219 16.898438 -26.550781 14.660156 -26.550781 C 12.714844 -26.550781 10.738281 -25.988281 8.992188 -24.871094 C 5.171875 -22.433594 2.765625 -19.238281 1.746094 -15.351562 C 0.429688 -10.210938 1.515625 -5.996094 4.941406 -2.800781 C 7.511719 -0.394531 10.9375 0.988281 15.085938 1.316406 C 17.917969 1.152344 20.457031 0.558594 22.859375 -0.527344 C 23.585938 -0.855469 24.34375 -1.546875 25.035156 -2.4375 C 25.628906 -3.226562 25.628906 -4.214844 25.035156 -5.105469 Z M 25.035156 -5.105469 "/></g></g></g><g fill="#f7f7f7" fill-opacity="1"><g transform="translate(223.994753, 327.387506)"><g><path d="M 25.167969 -5.371094 C 25.066406 -5.832031 24.96875 -6.390625 24.804688 -6.917969 C 22.992188 -13.109375 19.863281 -18.710938 16.800781 -23.882812 C 16.042969 -25.167969 15.054688 -25.792969 13.933594 -25.792969 C 13.273438 -25.792969 12.582031 -25.59375 11.824219 -25.167969 C 10.902344 -24.605469 10.113281 -23.914062 9.652344 -23.222656 C 8.664062 -21.804688 7.839844 -20.226562 7.179688 -18.839844 C 5.996094 -16.371094 5.074219 -14.296875 4.28125 -12.320312 C 3.0625 -9.257812 2.140625 -6.652344 1.351562 -4.183594 C 0.890625 -2.800781 1.613281 -1.679688 2.46875 -1.285156 C 3.523438 -0.855469 4.546875 -1.316406 5.304688 -2.570312 C 5.664062 -3.195312 5.996094 -3.855469 6.324219 -4.511719 C 6.621094 -5.105469 6.949219 -5.765625 7.3125 -6.359375 C 7.542969 -6.785156 8.167969 -7.214844 8.628906 -7.214844 C 10.34375 -7.179688 12.054688 -7.113281 13.734375 -7.050781 C 14.988281 -6.984375 16.273438 -6.949219 17.523438 -6.882812 C 18.675781 -6.851562 19.007812 -6.191406 19.203125 -5.5 C 19.46875 -4.511719 19.765625 -3.753906 20.125 -3.128906 C 20.816406 -1.945312 22.070312 -1.449219 23.289062 -1.8125 C 24.539062 -2.207031 25.265625 -3.359375 25.265625 -4.972656 C 25.230469 -5.105469 25.199219 -5.238281 25.167969 -5.371094 Z M 10.574219 -12.78125 L 13.210938 -19.996094 L 16.734375 -12.78125 Z M 10.574219 -12.78125 "/></g></g></g><g fill="#f7f7f7" fill-opacity="1"><g transform="translate(250.510616, 327.387506)"><g><path d="M 18.675781 -24.242188 C 18.414062 -24.308594 18.148438 -24.375 17.855469 -24.410156 C 16.734375 -24.539062 15.613281 -24.605469 14.492188 -24.605469 C 12.222656 -24.605469 9.949219 -24.375 7.742188 -24.113281 C 6.359375 -23.980469 4.941406 -23.816406 3.523438 -23.71875 C 3.492188 -23.71875 3.457031 -23.683594 3.394531 -23.683594 L 3.292969 -23.652344 C 1.910156 -23.253906 1.152344 -22.433594 1.21875 -21.28125 C 1.25 -20.191406 2.007812 -19.433594 3.394531 -19.105469 C 3.722656 -19.039062 4.050781 -19.007812 4.414062 -18.972656 C 5.171875 -18.875 5.929688 -18.808594 6.6875 -18.742188 L 7.773438 -18.609375 L 7.808594 -18.050781 C 7.808594 -17.886719 7.808594 -17.753906 7.808594 -17.589844 C 7.808594 -16.4375 7.773438 -15.285156 7.742188 -14.132812 C 7.675781 -11.296875 7.640625 -8.398438 7.640625 -5.535156 C 7.640625 -4.511719 7.839844 -3.394531 8.234375 -2.371094 C 8.628906 -1.351562 9.519531 -0.757812 10.707031 -0.757812 C 11.859375 -0.757812 12.746094 -1.351562 13.144531 -2.4375 C 13.472656 -3.261719 13.636719 -4.152344 13.605469 -4.941406 C 13.539062 -7.113281 13.308594 -9.257812 13.109375 -11.066406 C 12.914062 -12.746094 12.683594 -14.429688 12.453125 -16.171875 C 12.320312 -16.964844 12.222656 -17.789062 12.121094 -18.609375 L 12.054688 -19.007812 L 15.085938 -19.007812 C 15.414062 -19.007812 15.746094 -19.007812 16.074219 -18.972656 C 16.765625 -18.972656 17.523438 -18.972656 18.214844 -19.007812 C 19.632812 -19.136719 20.6875 -20.09375 20.816406 -21.410156 C 20.917969 -22.695312 20.09375 -23.816406 18.675781 -24.242188 Z M 18.675781 -24.242188 "/></g></g></g></svg>